<svg width="294" height="55" viewBox="0 0 294 55" fill="none" xmlns="http://www.w3.org/2000/svg">
<g filter="url(#filter0_d_1_11430)">
<rect width="293.753" height="54" fill="#E3B873"/>
</g>
<path d="M69.3523 33.3258C68.5703 33.3258 67.9016 33.2181 67.3463 33.0028C66.8023 32.7875 66.3886 32.5098 66.1053 32.1698C65.8333 31.8298 65.6973 31.4785 65.6973 31.1158C65.6973 30.7305 65.8106 30.4245 66.0373 30.1978C66.2753 29.9598 66.587 29.8408 66.9723 29.8408C67.063 29.8408 67.1536 29.8521 67.2443 29.8748C67.335 29.8861 67.3973 29.8918 67.4313 29.8918L67.6523 29.9258V32.6458C67.6636 32.6458 67.7826 32.6911 68.0093 32.7818C68.304 32.8611 68.6383 32.9008 69.0123 32.9008C69.6923 32.9008 70.2306 32.6231 70.6273 32.0678C71.024 31.5011 71.2223 30.6171 71.2223 29.4158C71.2223 28.2258 71.0183 27.3645 70.6103 26.8318C70.2023 26.2878 69.613 26.0158 68.8423 26.0158C68.5476 26.0158 68.27 26.0668 68.0093 26.1688C67.7486 26.2708 67.471 26.4068 67.1763 26.5768C66.9383 26.7241 66.7003 26.9055 66.4623 27.1208L66.1223 26.8658L66.8023 21.1708H71.8173C71.8966 20.5588 72.0893 20.0488 72.3953 19.6408C72.52 19.4481 72.6673 19.2781 72.8373 19.1308H73.3473V22.4458H67.1763L66.7173 26.3558C66.876 26.2425 67.1083 26.1178 67.4143 25.9818C68.049 25.7211 68.6383 25.5908 69.1823 25.5908C70.837 25.5908 72.0723 25.9308 72.8883 26.6108C73.7043 27.2795 74.1123 28.2145 74.1123 29.4158C74.1123 30.6398 73.71 31.5975 72.9053 32.2888C72.1006 32.9801 70.9163 33.3258 69.3523 33.3258ZM80.2376 33.3258C78.8096 33.3258 77.6876 32.8158 76.8716 31.7958C76.0556 30.7758 75.6476 29.2175 75.6476 27.1208C75.6476 25.0808 76.0896 23.5395 76.9736 22.4968C77.8689 21.4428 79.0986 20.9158 80.6626 20.9158C81.3313 20.9158 81.9149 21.0291 82.4136 21.2558C82.9236 21.4711 83.3089 21.7488 83.5696 22.0888C83.8416 22.4288 83.9776 22.7745 83.9776 23.1258C83.9776 23.5111 83.8586 23.8228 83.6206 24.0608C83.3939 24.2875 83.0879 24.4008 82.7026 24.4008C82.5439 24.4008 82.3853 24.3895 82.2266 24.3668L82.0226 24.3158V21.5958L81.6996 21.4768C81.4503 21.3861 81.2179 21.3408 81.0026 21.3408C80.4473 21.3408 79.9883 21.4881 79.6256 21.7828C79.2743 22.0775 79.0023 22.6215 78.8096 23.4148C78.6283 24.2081 78.5376 25.3301 78.5376 26.7808C78.6623 26.5881 78.8153 26.4181 78.9966 26.2708C79.4273 25.9308 79.9259 25.7608 80.4926 25.7608C81.3199 25.7608 82.0396 25.9195 82.6516 26.2368C83.2749 26.5428 83.7509 26.9735 84.0796 27.5288C84.4083 28.0841 84.5726 28.7131 84.5726 29.4158C84.5726 30.6285 84.1929 31.5861 83.4336 32.2888C82.6856 32.9801 81.6203 33.3258 80.2376 33.3258ZM80.2376 32.9858C80.4643 32.9858 80.6853 32.8725 80.9006 32.6458C81.1273 32.4191 81.3143 32.0508 81.4616 31.5408C81.6089 31.0308 81.6826 30.3791 81.6826 29.5858C81.6826 28.7925 81.6033 28.1408 81.4446 27.6308C81.2973 27.1208 81.1046 26.7525 80.8666 26.5258C80.6399 26.2991 80.4019 26.1858 80.1526 26.1858C79.6879 26.1858 79.3139 26.4125 79.0306 26.8658C78.7586 27.3191 78.6226 28.0275 78.6226 28.9908C78.6226 30.4301 78.7756 31.4558 79.0816 32.0678C79.3989 32.6798 79.7843 32.9858 80.2376 32.9858ZM92.4842 23.2958V32.3058L93.8442 32.8158V33.0708H90.6142V32.8158L91.9742 32.3058V21.6808L90.7842 21.4258V21.1708H93.0792C93.6686 21.1708 94.1332 21.2955 94.4732 21.5448C94.8246 21.7828 95.1249 22.1398 95.3742 22.6158L99.0802 29.7048L101.919 22.6158C102.112 22.1171 102.373 21.7545 102.701 21.5278C103.03 21.2898 103.534 21.1708 104.214 21.1708H105.999V21.4258L104.979 21.6808V32.5608L105.999 32.8158V33.0708H101.154V32.8158L102.174 32.5608V23.2958L98.1792 33.2408H97.6692L92.4842 23.2958ZM107.365 32.3058C107.365 31.6371 107.496 31.0308 107.756 30.4868C108.028 29.9315 108.357 29.4498 108.742 29.0418C109.128 28.6338 109.632 28.1521 110.255 27.5968C110.833 27.0868 111.287 26.6618 111.615 26.3218C111.944 25.9705 112.222 25.5795 112.448 25.1488C112.675 24.7068 112.788 24.2308 112.788 23.7208C112.788 22.9728 112.607 22.3891 112.244 21.9698C111.882 21.5505 111.411 21.3408 110.833 21.3408C110.505 21.3408 110.17 21.3861 109.83 21.4768L109.473 21.5958V24.3158L109.252 24.3668C109.071 24.3895 108.918 24.4008 108.793 24.4008C108.408 24.4008 108.096 24.2875 107.858 24.0608C107.632 23.8228 107.518 23.5111 107.518 23.1258C107.518 22.7631 107.654 22.4118 107.926 22.0718C108.21 21.7318 108.623 21.4541 109.167 21.2388C109.723 21.0235 110.391 20.9158 111.173 20.9158C112.703 20.9158 113.837 21.2218 114.573 21.8338C115.31 22.4458 115.678 23.3015 115.678 24.4008C115.678 25.0921 115.497 25.6871 115.134 26.1858C114.783 26.6845 114.347 27.0981 113.825 27.4268C113.315 27.7555 112.63 28.1295 111.768 28.5488C111.043 28.9001 110.454 29.2118 110 29.4838C109.558 29.7445 109.145 30.0618 108.759 30.4358C108.385 30.8098 108.119 31.2348 107.96 31.7108H114.25C114.33 31.0988 114.522 30.5888 114.828 30.1808C114.953 29.9881 115.1 29.8181 115.27 29.6708H115.78V33.0708H107.365V32.3058Z" fill="white"/>
<path fill-rule="evenodd" clip-rule="evenodd" d="M20.2502 11.3819C20.2502 11.171 20.4284 11 20.6483 11H49.3116C49.5315 11 49.7097 11.171 49.7097 11.3819V39.0042C49.7097 39.2151 49.5315 39.3861 49.3116 39.3861C49.0918 39.3861 48.9135 39.2151 48.9135 39.0042V11.7638H20.6483C20.4284 11.7638 20.2502 11.5928 20.2502 11.3819Z" fill="white" stroke="white" stroke-width="0.5" stroke-linecap="round" stroke-linejoin="round"/>
<path d="M20.668 39.562L20.793 39.562L20.793 39.437L20.793 15.6781L22.4189 17.304C22.6219 17.507 22.9511 17.507 23.1542 17.304C23.3573 17.1009 23.3573 16.7717 23.1542 16.5686L20.6407 14.0551C20.4376 13.8521 20.1084 13.8521 19.9053 14.0551L17.3918 16.5686C17.1888 16.7717 17.1888 17.1009 17.3918 17.304C17.5949 17.507 17.9241 17.507 18.1272 17.304L19.7531 15.6781L19.7531 39.437L19.7531 39.562L19.8781 39.562L20.668 39.562Z" fill="white" stroke="white" stroke-width="0.25"/>
<path d="M19.7521 39.8321V39.9571H19.8771L43.7604 39.9571L42.1263 41.5827C41.9221 41.7858 41.9221 42.1154 42.1263 42.3185C42.3301 42.5213 42.6602 42.5213 42.8641 42.3185L45.3907 39.805C45.5949 39.6019 45.5949 39.2723 45.3907 39.0692L42.8641 36.5557C42.6602 36.3529 42.3301 36.3529 42.1263 36.5557C41.9221 36.7588 41.9221 37.0884 42.1263 37.2915L43.7604 38.9171L19.8771 38.9171H19.7521V39.0421V39.8321Z" fill="white" stroke="white" stroke-width="0.25"/>
<path fill-rule="evenodd" clip-rule="evenodd" d="M31.1625 11.1157C31.3167 11.2699 31.3167 11.52 31.1625 11.6742L26.423 16.4138C26.2687 16.568 26.0186 16.568 25.8644 16.4138C25.7102 16.2595 25.7102 16.0095 25.8644 15.8552L30.6039 11.1157C30.7582 10.9614 31.0083 10.9614 31.1625 11.1157Z" fill="white" stroke="white" stroke-width="0.5" stroke-linecap="round" stroke-linejoin="round"/>
<path fill-rule="evenodd" clip-rule="evenodd" d="M49.4624 29.9423C49.6167 30.0965 49.6167 30.3466 49.4624 30.5008L45.1178 34.8454C44.9636 34.9997 44.7135 34.9997 44.5593 34.8454C44.405 34.6912 44.405 34.4411 44.5593 34.2869L48.9039 29.9423C49.0581 29.788 49.3082 29.788 49.4624 29.9423Z" fill="white" stroke="white" stroke-width="0.5" stroke-linecap="round" stroke-linejoin="round"/>
<path fill-rule="evenodd" clip-rule="evenodd" d="M37.0851 11.1139C37.2403 11.2672 37.2419 11.5172 37.0886 11.6725L26.8196 22.0731C26.6664 22.2283 26.4163 22.2299 26.2611 22.0767C26.1059 21.9234 26.1043 21.6733 26.2575 21.5181L36.5265 11.1175C36.6798 10.9622 36.9298 10.9607 37.0851 11.1139Z" fill="white" stroke="white" stroke-width="0.5" stroke-linecap="round" stroke-linejoin="round"/>
<path fill-rule="evenodd" clip-rule="evenodd" d="M49.594 23.3589C49.7482 23.5131 49.7482 23.7632 49.594 23.9175L39.5883 33.9232C39.434 34.0774 39.184 34.0774 39.0297 33.9232C38.8755 33.7689 38.8755 33.5188 39.0297 33.3646L49.0354 23.3589C49.1896 23.2047 49.4397 23.2047 49.594 23.3589Z" fill="white" stroke="white" stroke-width="0.5" stroke-linecap="round" stroke-linejoin="round"/>
<path fill-rule="evenodd" clip-rule="evenodd" d="M43.4085 11.2492C43.5615 11.4046 43.5595 11.6547 43.404 11.8077L26.9473 28.0011C26.7918 28.1541 26.5418 28.1521 26.3888 27.9966C26.2358 27.8411 26.2378 27.5911 26.3933 27.4381L42.85 11.2447C43.0055 11.0917 43.2555 11.0937 43.4085 11.2492Z" fill="white" stroke="white" stroke-width="0.5" stroke-linecap="round" stroke-linejoin="round"/>
<path fill-rule="evenodd" clip-rule="evenodd" d="M49.5941 17.1715C49.7483 17.3257 49.7483 17.5758 49.5941 17.73L33.0057 34.3184C32.8515 34.4726 32.6014 34.4726 32.4472 34.3184C32.2929 34.1642 32.2929 33.9141 32.4472 33.7598L49.0355 17.1715C49.1898 17.0172 49.4399 17.0172 49.5941 17.1715Z" fill="white" stroke="white" stroke-width="0.5" stroke-linecap="round" stroke-linejoin="round"/>
<path fill-rule="evenodd" clip-rule="evenodd" d="M49.3308 11.2469C49.485 11.4011 49.485 11.6512 49.3308 11.8055L26.6863 34.4499C26.5321 34.6042 26.282 34.6042 26.1278 34.4499C25.9735 34.2957 25.9735 34.0456 26.1278 33.8914L48.7722 11.2469C48.9265 11.0927 49.1765 11.0927 49.3308 11.2469Z" fill="white" stroke="white" stroke-width="0.5" stroke-linecap="round" stroke-linejoin="round"/>
<path d="M205.166 33.3946C203.738 33.3946 202.655 33.1113 201.919 32.5446C201.193 31.978 200.831 31.2413 200.831 30.3346C200.831 29.7113 201.103 29.1106 201.647 28.5326C202.191 27.9433 202.854 27.524 203.636 27.2746C202.888 26.8553 202.315 26.3963 201.919 25.8976C201.533 25.3876 201.341 24.77 201.341 24.0446C201.341 23.138 201.703 22.4013 202.429 21.8346C203.165 21.268 204.248 20.9846 205.676 20.9846C206.39 20.9846 207.013 21.115 207.546 21.3756C208.09 21.6363 208.509 21.9763 208.804 22.3956C209.098 22.815 209.246 23.2513 209.246 23.7046C209.246 24.2373 209.013 24.753 208.549 25.2516C208.095 25.7503 207.563 26.0846 206.951 26.2546C207.982 26.708 208.764 27.2463 209.297 27.8696C209.829 28.493 210.096 29.258 210.096 30.1646C210.096 30.754 209.914 31.2923 209.552 31.7796C209.189 32.267 208.639 32.658 207.903 32.9526C207.166 33.2473 206.254 33.3946 205.166 33.3946ZM206.441 25.9146C206.871 25.722 207.217 25.4443 207.478 25.0816C207.75 24.719 207.886 24.26 207.886 23.7046C207.886 23.2966 207.784 22.917 207.58 22.5656C207.387 22.2143 207.132 21.9366 206.815 21.7326C206.509 21.5173 206.186 21.4096 205.846 21.4096C205.358 21.4096 204.95 21.6023 204.622 21.9876C204.304 22.3616 204.146 22.8773 204.146 23.5346C204.146 24.4413 204.911 25.2346 206.441 25.9146ZM204.996 32.9696C205.721 32.9696 206.282 32.7713 206.679 32.3746C207.087 31.9666 207.291 31.4 207.291 30.6746C207.291 30.1306 207.019 29.581 206.475 29.0256C205.931 28.4703 205.211 28 204.316 27.6146C203.681 27.8413 203.182 28.1813 202.82 28.6346C202.457 29.0766 202.276 29.6433 202.276 30.3346C202.276 30.8106 202.395 31.2526 202.633 31.6606C202.882 32.0573 203.211 32.3746 203.619 32.6126C204.038 32.8506 204.497 32.9696 204.996 32.9696ZM215.717 33.3946C214.289 33.3946 213.167 32.8846 212.351 31.8646C211.535 30.8446 211.127 29.2863 211.127 27.1896C211.127 25.1496 211.569 23.6083 212.453 22.5656C213.349 21.5116 214.578 20.9846 216.142 20.9846C216.811 20.9846 217.395 21.098 217.893 21.3246C218.403 21.54 218.789 21.8176 219.049 22.1576C219.321 22.4976 219.457 22.8433 219.457 23.1946C219.457 23.58 219.338 23.8916 219.1 24.1296C218.874 24.3563 218.568 24.4696 218.182 24.4696C218.024 24.4696 217.865 24.4583 217.706 24.4356L217.502 24.3846V21.6646L217.179 21.5456C216.93 21.455 216.698 21.4096 216.482 21.4096C215.927 21.4096 215.468 21.557 215.105 21.8516C214.754 22.1463 214.482 22.6903 214.289 23.4836C214.108 24.277 214.017 25.399 214.017 26.8496C214.142 26.657 214.295 26.487 214.476 26.3396C214.907 25.9996 215.406 25.8296 215.972 25.8296C216.8 25.8296 217.519 25.9883 218.131 26.3056C218.755 26.6116 219.231 27.0423 219.559 27.5976C219.888 28.153 220.052 28.782 220.052 29.4846C220.052 30.6973 219.673 31.655 218.913 32.3576C218.165 33.049 217.1 33.3946 215.717 33.3946ZM215.717 33.0546C215.944 33.0546 216.165 32.9413 216.38 32.7146C216.607 32.488 216.794 32.1196 216.941 31.6096C217.089 31.0996 217.162 30.448 217.162 29.6546C217.162 28.8613 217.083 28.2096 216.924 27.6996C216.777 27.1896 216.584 26.8213 216.346 26.5946C216.12 26.368 215.882 26.2546 215.632 26.2546C215.168 26.2546 214.794 26.4813 214.51 26.9346C214.238 27.388 214.102 28.0963 214.102 29.0596C214.102 30.499 214.255 31.5246 214.561 32.1366C214.879 32.7486 215.264 33.0546 215.717 33.0546ZM226.434 32.8846L227.454 32.6296V21.7496L226.434 21.4946V21.2396H230.769C232.798 21.2396 234.35 21.761 235.427 22.8036C236.515 23.8463 237.059 25.3083 237.059 27.1896C237.059 29.071 236.515 30.533 235.427 31.5756C234.35 32.6183 232.798 33.1396 230.769 33.1396H226.434V32.8846ZM230.769 32.7146C231.823 32.7146 232.639 32.2896 233.217 31.4396C233.795 30.5783 234.084 29.1616 234.084 27.1896C234.084 25.2176 233.795 23.8066 233.217 22.9566C232.639 22.0953 231.823 21.6646 230.769 21.6646H230.259V32.7146H230.769ZM236.882 32.8846L238.242 32.3746L242.917 21.0696H243.427L248.272 32.6296L249.122 32.8846V33.1396H247.082C246.492 33.1396 246.011 33.0093 245.637 32.7486C245.263 32.4766 244.985 32.1253 244.804 31.6946L243.937 29.6546H239.874L238.752 32.3746L240.027 32.8846V33.1396H236.882V32.8846ZM240.044 29.2296H243.767L241.897 24.7586L240.044 29.2296ZM250.896 32.8846L251.916 32.6296V28.7196L248.431 21.7496L247.581 21.4946V21.2396H249.706C250.296 21.2396 250.766 21.3643 251.117 21.6136C251.48 21.863 251.775 22.22 252.001 22.6846L254.517 27.6996L257.101 22.0046L255.826 21.4946V21.2396H259.056V21.4946L257.696 22.0046L254.721 28.5496V32.6296L255.741 32.8846V33.1396H250.896V32.8846ZM263.387 33.3946C262.583 33.3946 261.829 33.2133 261.126 32.8506C260.809 32.692 260.543 32.505 260.327 32.2896C260.169 32.5503 259.97 32.7826 259.732 32.9866C259.528 33.134 259.415 33.2133 259.392 33.2246H258.967V29.9946H259.647C259.817 30.55 260.055 31.0486 260.361 31.4906C261.053 32.4766 261.948 32.9696 263.047 32.9696C263.693 32.9696 264.209 32.777 264.594 32.3916C264.98 32.0063 265.172 31.4906 265.172 30.8446C265.172 30.4706 265.059 30.1363 264.832 29.8416C264.617 29.547 264.345 29.2863 264.016 29.0596C263.688 28.833 263.229 28.5496 262.639 28.2096C261.891 27.7903 261.285 27.4106 260.82 27.0706C260.356 26.7306 259.959 26.3056 259.63 25.7956C259.302 25.2743 259.137 24.6623 259.137 23.9596C259.137 23.4043 259.29 22.9056 259.596 22.4636C259.914 22.0103 260.384 21.6533 261.007 21.3926C261.631 21.1206 262.396 20.9846 263.302 20.9846C263.96 20.9846 264.617 21.1716 265.274 21.5456C265.524 21.6816 265.773 21.863 266.022 22.0896C266.215 21.795 266.413 21.5626 266.617 21.3926C266.821 21.2453 266.935 21.166 266.957 21.1546H267.382V24.3846H266.702C266.555 23.8406 266.334 23.3476 266.039 22.9056C265.767 22.475 265.427 22.118 265.019 21.8346C264.623 21.5513 264.164 21.4096 263.642 21.4096C263.2 21.4096 262.821 21.5853 262.503 21.9366C262.186 22.288 262.027 22.7356 262.027 23.2796C262.027 23.699 262.146 24.0786 262.384 24.4186C262.634 24.7473 262.934 25.0363 263.285 25.2856C263.648 25.535 264.135 25.8353 264.747 26.1866C265.461 26.5946 266.039 26.9573 266.481 27.2746C266.923 27.592 267.297 27.9886 267.603 28.4646C267.909 28.9293 268.062 29.4676 268.062 30.0796C268.062 30.6916 267.887 31.2526 267.535 31.7626C267.184 32.2613 266.657 32.658 265.954 32.9526C265.252 33.2473 264.396 33.3946 263.387 33.3946Z" fill="white"/>
<path d="M135.09 54.035L135.09 0" stroke="white" stroke-width="0.75"/>
<path d="M176.6 13.1997C176.337 11.9464 175.196 11 173.831 11C173.519 11 173.266 11.2458 173.266 11.5499C173.266 11.854 173.519 12.0998 173.831 12.0998C174.766 12.0998 175.527 12.84 175.527 13.7496C175.527 14.6591 174.766 15.3993 173.831 15.3993C173.519 15.3993 173.266 15.6451 173.266 15.9492C173.266 16.2533 173.519 16.4992 173.831 16.4992C175.196 16.4992 176.337 15.5528 176.6 14.2995H184.005V19.2487H153.484V14.2995H161.397H163.093C163.405 14.2995 163.658 14.0537 163.658 13.7496C163.658 13.4455 163.405 13.1997 163.093 13.1997H162.066C162.3 12.5607 162.922 12.0998 163.658 12.0998C164.593 12.0998 165.353 12.84 165.353 13.7496C165.353 14.6591 164.593 15.3993 163.658 15.3993C163.346 15.3993 163.093 15.6451 163.093 15.9492C163.093 16.2533 163.346 16.4992 163.658 16.4992C165.216 16.4992 166.484 15.2657 166.484 13.7496C166.484 12.2335 165.216 11 163.658 11C162.294 11 161.152 11.9464 160.889 13.1997H152.354V20.3486V42.3452H185.135V20.3486V13.1997H176.6ZM184.005 41.2454H153.484V20.3486H184.005V41.2454Z" fill="white"/>
<path d="M167.049 12.0998C167.984 12.0998 168.745 12.84 168.745 13.7496C168.745 14.6591 167.984 15.3993 167.049 15.3993C166.737 15.3993 166.484 15.6451 166.484 15.9492C166.484 16.2533 166.737 16.4992 167.049 16.4992C168.607 16.4992 169.875 15.2657 169.875 13.7496C169.875 12.2335 168.607 11 167.049 11C166.737 11 166.484 11.2458 166.484 11.5499C166.484 11.854 166.737 12.0998 167.049 12.0998Z" fill="white"/>
<path d="M170.44 12.0998C171.375 12.0998 172.136 12.84 172.136 13.7496C172.136 14.6591 171.375 15.3993 170.44 15.3993C170.128 15.3993 169.875 15.6451 169.875 15.9492C169.875 16.2533 170.128 16.4992 170.44 16.4992C171.998 16.4992 173.266 15.2657 173.266 13.7496C173.266 12.2335 171.998 11 170.44 11C170.128 11 169.875 11.2458 169.875 11.5499C169.875 11.854 170.128 12.0998 170.44 12.0998Z" fill="white"/>
<path d="M157.441 24.7475H169.875C170.187 24.7475 170.44 24.5017 170.44 24.1976C170.44 23.8935 170.187 23.6476 169.875 23.6476H157.441C157.129 23.6476 156.876 23.8935 156.876 24.1976C156.876 24.5017 157.129 24.7475 157.441 24.7475Z" fill="white"/>
<path d="M180.048 32.4467H171.571C171.259 32.4467 171.005 32.6925 171.005 32.9966C171.005 33.3007 171.259 33.5465 171.571 33.5465H180.048C180.36 33.5465 180.614 33.3007 180.614 32.9966C180.614 32.6925 180.36 32.4467 180.048 32.4467Z" fill="white"/>
<path d="M157.441 29.1477H163.093C163.405 29.1477 163.658 28.9019 163.658 28.5978C163.658 28.2937 163.405 28.0479 163.093 28.0479H157.441C157.129 28.0479 156.876 28.2937 156.876 28.5978C156.876 28.9019 157.129 29.1477 157.441 29.1477Z" fill="white"/>
<path d="M180.048 36.8464H174.397C174.085 36.8464 173.831 37.0922 173.831 37.3963C173.831 37.7004 174.085 37.9462 174.397 37.9462H180.048C180.36 37.9462 180.614 37.7004 180.614 37.3963C180.614 37.0922 180.36 36.8464 180.048 36.8464Z" fill="white"/>
<path d="M168.179 28.5978C168.179 28.9019 168.433 29.1477 168.745 29.1477H177.223C177.534 29.1477 177.788 28.9019 177.788 28.5978C177.788 28.2937 177.534 28.0479 177.223 28.0479H168.745C168.433 28.0479 168.179 28.2937 168.179 28.5978Z" fill="white"/>
<path d="M166.32 28.988C166.422 28.8835 166.484 28.7405 166.484 28.5975C166.484 28.454 166.422 28.311 166.32 28.2071C166.111 28.0036 165.727 28.0036 165.517 28.2071C165.416 28.311 165.353 28.454 165.353 28.5975C165.353 28.7405 165.416 28.8835 165.517 28.988C165.625 29.0919 165.772 29.1475 165.919 29.1475C166.066 29.1475 166.213 29.0919 166.32 28.988Z" fill="white"/>
<path d="M159.702 32.9966C159.702 33.3007 159.955 33.5465 160.267 33.5465H168.745C169.057 33.5465 169.31 33.3007 169.31 32.9966C169.31 32.6925 169.057 32.4467 168.745 32.4467H160.267C159.955 32.4467 159.702 32.6925 159.702 32.9966Z" fill="white"/>
<path d="M157.441 33.5465C157.588 33.5465 157.735 33.486 157.842 33.387C157.944 33.2825 158.006 33.1396 158.006 32.9966C158.006 32.8531 157.944 32.7101 157.842 32.6116C157.633 32.4027 157.249 32.4027 157.04 32.6061C156.938 32.7101 156.876 32.8531 156.876 32.9966C156.876 33.1396 156.938 33.2825 157.04 33.387C157.147 33.486 157.288 33.5465 157.441 33.5465Z" fill="white"/>
<path d="M180.048 29.1475C180.195 29.1475 180.342 29.0919 180.45 28.988C180.557 28.8835 180.614 28.7405 180.614 28.5975C180.614 28.454 180.557 28.311 180.45 28.2071C180.235 28.0036 179.856 28.0036 179.647 28.2071C179.545 28.311 179.483 28.454 179.483 28.5975C179.483 28.7405 179.545 28.8835 179.647 28.988C179.755 29.0919 179.902 29.1475 180.048 29.1475Z" fill="white"/>
<path d="M171.571 36.8464H157.441C157.129 36.8464 156.876 37.0922 156.876 37.3963C156.876 37.7004 157.129 37.9462 157.441 37.9462H171.571C171.883 37.9462 172.136 37.7004 172.136 37.3963C172.136 37.0922 171.883 36.8464 171.571 36.8464Z" fill="white"/>
<defs>
<filter id="filter0_d_1_11430" x="-15" y="-15" width="333.753" height="94" filterUnits="userSpaceOnUse" color-interpolation-filters="sRGB">
<feFlood flood-opacity="0" result="BackgroundImageFix"/>
<feColorMatrix in="SourceAlpha" type="matrix" values="0 0 0 0 0 0 0 0 0 0 0 0 0 0 0 0 0 0 127 0" result="hardAlpha"/>
<feOffset dx="5" dy="5"/>
<feGaussianBlur stdDeviation="10"/>
<feColorMatrix type="matrix" values="0 0 0 0 0.890196 0 0 0 0 0.721569 0 0 0 0 0.45098 0 0 0 0.5 0"/>
<feBlend mode="normal" in2="BackgroundImageFix" result="effect1_dropShadow_1_11430"/>
<feBlend mode="normal" in="SourceGraphic" in2="effect1_dropShadow_1_11430" result="shape"/>
</filter>
</defs>
</svg>
