<svg width="294" height="55" viewBox="0 0 294 55" fill="none" xmlns="http://www.w3.org/2000/svg">
<g filter="url(#filter0_d_1_11286)">
<rect width="293.753" height="54" fill="#E3B873"/>
</g>
<path d="M69.0973 33.0703V32.8153L70.2873 32.4753V29.9253H65.4423L65.1023 29.4153L71.4773 21.0003H73.0923V29.1603H74.8773V29.9253H73.0923V32.4753L74.2823 32.8153V33.0703H69.0973ZM66.0373 29.1603H70.2873V23.5503L66.0373 29.1603ZM80.6586 33.3253C79.7406 33.3253 78.9076 33.0816 78.1596 32.5943C77.4116 32.107 76.8166 31.3986 76.3746 30.4693C75.944 29.5286 75.7286 28.4123 75.7286 27.1203C75.7286 25.8283 75.944 24.7176 76.3746 23.7883C76.8166 22.8476 77.4116 22.1336 78.1596 21.6463C78.9076 21.159 79.7406 20.9153 80.6586 20.9153C81.5766 20.9153 82.4096 21.159 83.1576 21.6463C83.9056 22.1336 84.495 22.8476 84.9256 23.7883C85.3676 24.7176 85.5886 25.8283 85.5886 27.1203C85.5886 28.4123 85.3676 29.5286 84.9256 30.4693C84.495 31.3986 83.9056 32.107 83.1576 32.5943C82.4096 33.0816 81.5766 33.3253 80.6586 33.3253ZM80.6586 32.9853C81.962 32.9853 82.6136 31.0303 82.6136 27.1203C82.6136 23.2103 81.962 21.2553 80.6586 21.2553C79.3553 21.2553 78.7036 23.2103 78.7036 27.1203C78.7036 31.0303 79.3553 32.9853 80.6586 32.9853ZM93.4969 23.2953V32.3053L94.8569 32.8153V33.0703H91.6269V32.8153L92.9869 32.3053V21.6803L91.9669 21.4253V21.1703H94.0919C94.6813 21.1703 95.1459 21.295 95.4859 21.5443C95.8373 21.7823 96.1376 22.1393 96.3869 22.6153L100.093 29.7043L102.932 22.6153C103.125 22.1166 103.385 21.754 103.714 21.5273C104.043 21.2893 104.547 21.1703 105.227 21.1703H107.012V21.4253L105.992 21.6803V32.5603L107.012 32.8153V33.0703H102.167V32.8153L103.187 32.5603V23.2953L99.1919 33.2403H98.6819L93.4969 23.2953ZM108.378 32.3053C108.378 31.6366 108.508 31.0303 108.769 30.4863C109.041 29.931 109.37 29.4493 109.755 29.0413C110.14 28.6333 110.645 28.1516 111.268 27.5963C111.846 27.0863 112.299 26.6613 112.628 26.3213C112.957 25.97 113.234 25.579 113.461 25.1483C113.688 24.7063 113.801 24.2303 113.801 23.7203C113.801 22.9723 113.62 22.3886 113.257 21.9693C112.894 21.55 112.424 21.3403 111.846 21.3403C111.517 21.3403 111.183 21.3856 110.843 21.4763L110.486 21.5953V24.3153L110.265 24.3663C110.084 24.389 109.931 24.4003 109.806 24.4003C109.421 24.4003 109.109 24.287 108.871 24.0603C108.644 23.8223 108.531 23.5106 108.531 23.1253C108.531 22.7626 108.667 22.4113 108.939 22.0713C109.222 21.7313 109.636 21.4536 110.18 21.2383C110.735 21.023 111.404 20.9153 112.186 20.9153C113.716 20.9153 114.849 21.2213 115.586 21.8333C116.323 22.4453 116.691 23.301 116.691 24.4003C116.691 25.0916 116.51 25.6866 116.147 26.1853C115.796 26.684 115.359 27.0976 114.838 27.4263C114.328 27.755 113.642 28.129 112.781 28.5483C112.056 28.8996 111.466 29.2113 111.013 29.4833C110.571 29.744 110.157 30.0613 109.772 30.4353C109.398 30.8093 109.132 31.2343 108.973 31.7103H115.263C115.342 31.0983 115.535 30.5883 115.841 30.1803C115.966 29.9876 116.113 29.8176 116.283 29.6703H116.793V33.0703H108.378V32.3053Z" fill="white"/>
<path fill-rule="evenodd" clip-rule="evenodd" d="M20.2503 11.3819C20.2503 11.171 20.4285 11 20.6484 11H49.3115C49.5314 11 49.7096 11.171 49.7096 11.3819V39.0039C49.7096 39.2148 49.5314 39.3858 49.3115 39.3858C49.0916 39.3858 48.9134 39.2148 48.9134 39.0039V11.7637H20.6484C20.4285 11.7637 20.2503 11.5928 20.2503 11.3819Z" fill="white" stroke="white" stroke-width="0.5" stroke-linecap="round" stroke-linejoin="round"/>
<path d="M18.1273 17.3044L19.7532 15.6786L19.7532 39.4373L19.7532 39.5623L19.8782 39.5623L20.6681 39.5623L20.7931 39.5623L20.7931 39.4373L20.7931 15.6786L22.419 17.3044C22.622 17.5075 22.9512 17.5075 23.1543 17.3044C23.3574 17.1014 23.3574 16.7722 23.1543 16.5691L20.6408 14.0556C20.4377 13.8526 20.1085 13.8526 19.9055 14.0556L17.392 16.5691C17.1889 16.7722 17.1889 17.1014 17.392 17.3044C17.595 17.5075 17.9243 17.5075 18.1273 17.3044Z" fill="white" stroke="white" stroke-width="0.25"/>
<path d="M42.1262 37.2909L43.7603 38.9165L19.8772 38.9165H19.7522V39.0415V39.8314V39.9564H19.8772L43.7603 39.9564L42.1262 41.5821C41.922 41.7852 41.922 42.1147 42.1262 42.3179C42.33 42.5206 42.6602 42.5206 42.864 42.3179L45.3906 39.8044C45.5947 39.6013 45.5947 39.2717 45.3906 39.0686L42.864 36.5551C42.6602 36.3523 42.33 36.3523 42.1262 36.5551C41.922 36.7582 41.922 37.0878 42.1262 37.2909Z" fill="white" stroke="white" stroke-width="0.25"/>
<path fill-rule="evenodd" clip-rule="evenodd" d="M31.1624 11.1157C31.3167 11.2699 31.3167 11.52 31.1624 11.6742L26.423 16.4137C26.2687 16.568 26.0186 16.568 25.8644 16.4137C25.7102 16.2595 25.7102 16.0094 25.8644 15.8552L30.6039 11.1157C30.7581 10.9614 31.0082 10.9614 31.1624 11.1157Z" fill="white" stroke="white" stroke-width="0.5" stroke-linecap="round" stroke-linejoin="round"/>
<path fill-rule="evenodd" clip-rule="evenodd" d="M49.4623 29.9423C49.6165 30.0966 49.6165 30.3467 49.4623 30.5009L45.1177 34.8454C44.9635 34.9997 44.7134 34.9997 44.5592 34.8454C44.4049 34.6912 44.4049 34.4411 44.5592 34.2869L48.9037 29.9423C49.0579 29.7881 49.308 29.7881 49.4623 29.9423Z" fill="white" stroke="white" stroke-width="0.5" stroke-linecap="round" stroke-linejoin="round"/>
<path fill-rule="evenodd" clip-rule="evenodd" d="M37.0851 11.1139C37.2403 11.2672 37.2419 11.5172 37.0886 11.6725L26.8197 22.073C26.6665 22.2282 26.4164 22.2298 26.2612 22.0766C26.106 21.9233 26.1044 21.6732 26.2576 21.518L36.5265 11.1175C36.6798 10.9622 36.9299 10.9607 37.0851 11.1139Z" fill="white" stroke="white" stroke-width="0.5" stroke-linecap="round" stroke-linejoin="round"/>
<path fill-rule="evenodd" clip-rule="evenodd" d="M49.5938 23.3591C49.7481 23.5134 49.7481 23.7635 49.5938 23.9177L39.5882 33.9233C39.434 34.0775 39.1839 34.0775 39.0297 33.9233C38.8754 33.7691 38.8754 33.519 39.0297 33.3647L49.0353 23.3591C49.1895 23.2049 49.4396 23.2049 49.5938 23.3591Z" fill="white" stroke="white" stroke-width="0.5" stroke-linecap="round" stroke-linejoin="round"/>
<path fill-rule="evenodd" clip-rule="evenodd" d="M43.4084 11.2496C43.5614 11.4051 43.5594 11.6551 43.4039 11.8081L26.9474 28.0014C26.7919 28.1544 26.5418 28.1524 26.3888 27.9969C26.2358 27.8414 26.2379 27.5913 26.3933 27.4384L42.8499 11.2451C43.0054 11.0921 43.2554 11.0941 43.4084 11.2496Z" fill="white" stroke="white" stroke-width="0.5" stroke-linecap="round" stroke-linejoin="round"/>
<path fill-rule="evenodd" clip-rule="evenodd" d="M49.5939 17.1718C49.7482 17.326 49.7482 17.5761 49.5939 17.7303L33.0057 34.3185C32.8515 34.4728 32.6014 34.4728 32.4472 34.3185C32.2929 34.1643 32.2929 33.9142 32.4472 33.76L49.0354 17.1718C49.1896 17.0175 49.4397 17.0175 49.5939 17.1718Z" fill="white" stroke="white" stroke-width="0.5" stroke-linecap="round" stroke-linejoin="round"/>
<path fill-rule="evenodd" clip-rule="evenodd" d="M49.3306 11.2473C49.4849 11.4016 49.4849 11.6516 49.3306 11.8059L26.6864 34.4501C26.5321 34.6044 26.2821 34.6044 26.1278 34.4501C25.9736 34.2959 25.9736 34.0458 26.1278 33.8916L48.7721 11.2473C48.9263 11.0931 49.1764 11.0931 49.3306 11.2473Z" fill="white" stroke="white" stroke-width="0.5" stroke-linecap="round" stroke-linejoin="round"/>
<path d="M204.146 33.1387V32.8837L205.336 32.5437V29.9937H200.491L200.151 29.4837L206.526 21.0687H208.141V29.2287H209.926V29.9937H208.141V32.5437L209.331 32.8837V33.1387H204.146ZM201.086 29.2287H205.336V23.6187L201.086 29.2287ZM215.691 33.3937C214.263 33.3937 213.181 33.1103 212.444 32.5437C211.719 31.977 211.356 31.2403 211.356 30.3337C211.356 29.7103 211.628 29.1097 212.172 28.5317C212.716 27.9423 213.379 27.523 214.161 27.2737C213.413 26.8543 212.841 26.3953 212.444 25.8967C212.059 25.3867 211.866 24.769 211.866 24.0437C211.866 23.137 212.229 22.4003 212.954 21.8337C213.691 21.267 214.773 20.9837 216.201 20.9837C216.915 20.9837 217.538 21.114 218.071 21.3747C218.615 21.6353 219.034 21.9753 219.329 22.3947C219.624 22.814 219.771 23.2503 219.771 23.7037C219.771 24.2363 219.539 24.752 219.074 25.2507C218.621 25.7493 218.088 26.0837 217.476 26.2537C218.507 26.707 219.289 27.2453 219.822 27.8687C220.355 28.492 220.621 29.257 220.621 30.1637C220.621 30.753 220.44 31.2913 220.077 31.7787C219.714 32.266 219.165 32.657 218.428 32.9517C217.691 33.2463 216.779 33.3937 215.691 33.3937ZM216.966 25.9137C217.397 25.721 217.742 25.4433 218.003 25.0807C218.275 24.718 218.411 24.259 218.411 23.7037C218.411 23.2957 218.309 22.916 218.105 22.5647C217.912 22.2133 217.657 21.9357 217.34 21.7317C217.034 21.5163 216.711 21.4087 216.371 21.4087C215.884 21.4087 215.476 21.6013 215.147 21.9867C214.83 22.3607 214.671 22.8763 214.671 23.5337C214.671 24.4403 215.436 25.2337 216.966 25.9137ZM215.521 32.9687C216.246 32.9687 216.807 32.7703 217.204 32.3737C217.612 31.9657 217.816 31.399 217.816 30.6737C217.816 30.1297 217.544 29.58 217 29.0247C216.456 28.4693 215.736 27.999 214.841 27.6137C214.206 27.8403 213.708 28.1803 213.345 28.6337C212.982 29.0757 212.801 29.6423 212.801 30.3337C212.801 30.8097 212.92 31.2517 213.158 31.6597C213.407 32.0563 213.736 32.3737 214.144 32.6117C214.563 32.8497 215.022 32.9687 215.521 32.9687ZM226.75 32.8837L227.77 32.6287V21.7487L226.75 21.4937V21.2387H231.085C233.113 21.2387 234.666 21.76 235.743 22.8027C236.831 23.8453 237.375 25.3073 237.375 27.1887C237.375 29.07 236.831 30.532 235.743 31.5747C234.666 32.6173 233.113 33.1387 231.085 33.1387H226.75V32.8837ZM231.085 32.7137C232.139 32.7137 232.955 32.2887 233.533 31.4387C234.111 30.5773 234.4 29.1607 234.4 27.1887C234.4 25.2167 234.111 23.8057 233.533 22.9557C232.955 22.0943 232.139 21.6637 231.085 21.6637H230.575V32.7137H231.085ZM237.197 32.8837L238.557 32.3737L243.232 21.0687H243.742L248.587 32.6287L249.437 32.8837V33.1387H247.397C246.808 33.1387 246.326 33.0083 245.952 32.7477C245.578 32.4757 245.301 32.1243 245.119 31.6937L244.252 29.6537H240.189L239.067 32.3737L240.342 32.8837V33.1387H237.197V32.8837ZM240.359 29.2287H244.082L242.212 24.7577L240.359 29.2287ZM251.212 32.8837L252.232 32.6287V28.7187L248.747 21.7487L247.897 21.4937V21.2387H250.022C250.611 21.2387 251.081 21.3633 251.433 21.6127C251.795 21.862 252.09 22.219 252.317 22.6837L254.833 27.6987L257.417 22.0037L256.142 21.4937V21.2387H259.372V21.4937L258.012 22.0037L255.037 28.5487V32.6287L256.057 32.8837V33.1387H251.212V32.8837ZM263.703 33.3937C262.898 33.3937 262.144 33.2123 261.442 32.8497C261.124 32.691 260.858 32.504 260.643 32.2887C260.484 32.5493 260.286 32.7817 260.048 32.9857C259.844 33.133 259.73 33.2123 259.708 33.2237H259.283V29.9937H259.963C260.133 30.549 260.371 31.0477 260.677 31.4897C261.368 32.4757 262.263 32.9687 263.363 32.9687C264.009 32.9687 264.524 32.776 264.91 32.3907C265.295 32.0053 265.488 31.4897 265.488 30.8437C265.488 30.4697 265.374 30.1353 265.148 29.8407C264.932 29.546 264.66 29.2853 264.332 29.0587C264.003 28.832 263.544 28.5487 262.955 28.2087C262.207 27.7893 261.6 27.4097 261.136 27.0697C260.671 26.7297 260.274 26.3047 259.946 25.7947C259.617 25.2733 259.453 24.6613 259.453 23.9587C259.453 23.4033 259.606 22.9047 259.912 22.4627C260.229 22.0093 260.699 21.6523 261.323 21.3917C261.946 21.1197 262.711 20.9837 263.618 20.9837C264.275 20.9837 264.932 21.1707 265.59 21.5447C265.839 21.6807 266.088 21.862 266.338 22.0887C266.53 21.794 266.729 21.5617 266.933 21.3917C267.137 21.2443 267.25 21.165 267.273 21.1537H267.698V24.3837H267.018C266.87 23.8397 266.649 23.3467 266.355 22.9047C266.083 22.474 265.743 22.117 265.335 21.8337C264.938 21.5503 264.479 21.4087 263.958 21.4087C263.516 21.4087 263.136 21.5843 262.819 21.9357C262.501 22.287 262.343 22.7347 262.343 23.2787C262.343 23.698 262.462 24.0777 262.7 24.4177C262.949 24.7463 263.249 25.0353 263.601 25.2847C263.963 25.534 264.451 25.8343 265.063 26.1857C265.777 26.5937 266.355 26.9563 266.797 27.2737C267.239 27.591 267.613 27.9877 267.919 28.4637C268.225 28.9283 268.378 29.4667 268.378 30.0787C268.378 30.6907 268.202 31.2517 267.851 31.7617C267.499 32.2603 266.972 32.657 266.27 32.9517C265.567 33.2463 264.711 33.3937 263.703 33.3937Z" fill="white"/>
<path d="M135.09 54.035L135.09 0" stroke="white" stroke-width="0.75"/>
<path d="M176.6 13.1997C176.337 11.9464 175.196 11 173.831 11C173.519 11 173.266 11.2458 173.266 11.5499C173.266 11.854 173.519 12.0998 173.831 12.0998C174.766 12.0998 175.527 12.84 175.527 13.7496C175.527 14.6591 174.766 15.3993 173.831 15.3993C173.519 15.3993 173.266 15.6451 173.266 15.9492C173.266 16.2533 173.519 16.4992 173.831 16.4992C175.196 16.4992 176.337 15.5528 176.6 14.2995H184.005V19.2487H153.484V14.2995H161.397H163.093C163.405 14.2995 163.658 14.0537 163.658 13.7496C163.658 13.4455 163.405 13.1997 163.093 13.1997H162.066C162.3 12.5607 162.922 12.0998 163.658 12.0998C164.593 12.0998 165.353 12.84 165.353 13.7496C165.353 14.6591 164.593 15.3993 163.658 15.3993C163.346 15.3993 163.093 15.6451 163.093 15.9492C163.093 16.2533 163.346 16.4992 163.658 16.4992C165.216 16.4992 166.484 15.2657 166.484 13.7496C166.484 12.2335 165.216 11 163.658 11C162.293 11 161.152 11.9464 160.889 13.1997H152.354V20.3486V42.3452H185.135V20.3486V13.1997H176.6ZM184.005 41.2454H153.484V20.3486H184.005V41.2454Z" fill="white"/>
<path d="M167.049 12.0998C167.984 12.0998 168.745 12.84 168.745 13.7496C168.745 14.6591 167.984 15.3993 167.049 15.3993C166.737 15.3993 166.484 15.6451 166.484 15.9492C166.484 16.2533 166.737 16.4992 167.049 16.4992C168.607 16.4992 169.875 15.2657 169.875 13.7496C169.875 12.2335 168.607 11 167.049 11C166.737 11 166.484 11.2458 166.484 11.5499C166.484 11.854 166.737 12.0998 167.049 12.0998Z" fill="white"/>
<path d="M170.44 12.0998C171.375 12.0998 172.136 12.84 172.136 13.7496C172.136 14.6591 171.375 15.3993 170.44 15.3993C170.128 15.3993 169.875 15.6451 169.875 15.9492C169.875 16.2533 170.128 16.4992 170.44 16.4992C171.998 16.4992 173.266 15.2657 173.266 13.7496C173.266 12.2335 171.998 11 170.44 11C170.128 11 169.875 11.2458 169.875 11.5499C169.875 11.854 170.128 12.0998 170.44 12.0998Z" fill="white"/>
<path d="M157.441 24.7475H169.875C170.187 24.7475 170.44 24.5017 170.44 24.1976C170.44 23.8935 170.187 23.6476 169.875 23.6476H157.441C157.129 23.6476 156.876 23.8935 156.876 24.1976C156.876 24.5017 157.129 24.7475 157.441 24.7475Z" fill="white"/>
<path d="M180.048 32.4467H171.571C171.259 32.4467 171.005 32.6925 171.005 32.9966C171.005 33.3007 171.259 33.5465 171.571 33.5465H180.048C180.36 33.5465 180.614 33.3007 180.614 32.9966C180.614 32.6925 180.36 32.4467 180.048 32.4467Z" fill="white"/>
<path d="M157.441 29.1472H163.093C163.405 29.1472 163.658 28.9014 163.658 28.5973C163.658 28.2932 163.405 28.0474 163.093 28.0474H157.441C157.129 28.0474 156.876 28.2932 156.876 28.5973C156.876 28.9014 157.129 29.1472 157.441 29.1472Z" fill="white"/>
<path d="M180.048 36.8459H174.397C174.085 36.8459 173.831 37.0917 173.831 37.3958C173.831 37.6999 174.085 37.9457 174.397 37.9457H180.048C180.36 37.9457 180.614 37.6999 180.614 37.3958C180.614 37.0917 180.36 36.8459 180.048 36.8459Z" fill="white"/>
<path d="M168.179 28.5973C168.179 28.9014 168.433 29.1472 168.745 29.1472H177.222C177.534 29.1472 177.788 28.9014 177.788 28.5973C177.788 28.2932 177.534 28.0474 177.222 28.0474H168.745C168.433 28.0474 168.179 28.2932 168.179 28.5973Z" fill="white"/>
<path d="M166.32 28.988C166.422 28.8835 166.484 28.7405 166.484 28.5975C166.484 28.454 166.422 28.311 166.32 28.2071C166.111 28.0036 165.727 28.0036 165.517 28.2071C165.416 28.311 165.354 28.454 165.354 28.5975C165.354 28.7405 165.416 28.8835 165.517 28.988C165.625 29.0919 165.772 29.1475 165.919 29.1475C166.066 29.1475 166.213 29.0919 166.32 28.988Z" fill="white"/>
<path d="M159.702 32.9966C159.702 33.3007 159.955 33.5465 160.267 33.5465H168.745C169.057 33.5465 169.31 33.3007 169.31 32.9966C169.31 32.6925 169.057 32.4467 168.745 32.4467H160.267C159.955 32.4467 159.702 32.6925 159.702 32.9966Z" fill="white"/>
<path d="M157.441 33.5469C157.588 33.5469 157.735 33.4864 157.842 33.3875C157.944 33.283 158.006 33.14 158.006 32.997C158.006 32.8535 157.944 32.7105 157.842 32.6121C157.633 32.4031 157.249 32.4031 157.04 32.6066C156.938 32.7105 156.876 32.8535 156.876 32.997C156.876 33.14 156.938 33.283 157.04 33.3875C157.147 33.4864 157.288 33.5469 157.441 33.5469Z" fill="white"/>
<path d="M180.048 29.1475C180.195 29.1475 180.342 29.0919 180.45 28.988C180.557 28.8835 180.614 28.7405 180.614 28.5975C180.614 28.454 180.557 28.311 180.45 28.2071C180.235 28.0036 179.856 28.0036 179.647 28.2071C179.545 28.311 179.483 28.454 179.483 28.5975C179.483 28.7405 179.545 28.8835 179.647 28.988C179.755 29.0919 179.902 29.1475 180.048 29.1475Z" fill="white"/>
<path d="M171.571 36.8459H157.441C157.129 36.8459 156.876 37.0917 156.876 37.3958C156.876 37.6999 157.129 37.9457 157.441 37.9457H171.571C171.883 37.9457 172.136 37.6999 172.136 37.3958C172.136 37.0917 171.883 36.8459 171.571 36.8459Z" fill="white"/>
<defs>
<filter id="filter0_d_1_11286" x="-15" y="-15" width="333.753" height="94" filterUnits="userSpaceOnUse" color-interpolation-filters="sRGB">
<feFlood flood-opacity="0" result="BackgroundImageFix"/>
<feColorMatrix in="SourceAlpha" type="matrix" values="0 0 0 0 0 0 0 0 0 0 0 0 0 0 0 0 0 0 127 0" result="hardAlpha"/>
<feOffset dx="5" dy="5"/>
<feGaussianBlur stdDeviation="10"/>
<feColorMatrix type="matrix" values="0 0 0 0 0.890196 0 0 0 0 0.721569 0 0 0 0 0.45098 0 0 0 0.5 0"/>
<feBlend mode="normal" in2="BackgroundImageFix" result="effect1_dropShadow_1_11286"/>
<feBlend mode="normal" in="SourceGraphic" in2="effect1_dropShadow_1_11286" result="shape"/>
</filter>
</defs>
</svg>
