<svg width="294" height="55" viewBox="0 0 294 55" fill="none" xmlns="http://www.w3.org/2000/svg">
<g filter="url(#filter0_d_1_11358)">
<rect x="-6.10352e-05" width="293.753" height="54" fill="#E3B873"/>
</g>
<path d="M69.7772 33.3258C69.1086 33.3258 68.5192 33.2181 68.0092 33.0028C67.5106 32.7761 67.1252 32.4928 66.8532 32.1528C66.5926 31.8128 66.4622 31.4671 66.4622 31.1158C66.4622 30.7305 66.5756 30.4245 66.8022 30.1978C67.0402 29.9598 67.3519 29.8408 67.7372 29.8408C67.8279 29.8408 67.9186 29.8521 68.0092 29.8748C68.0999 29.8861 68.1622 29.8918 68.1962 29.8918L68.4172 29.9258V32.6458L68.7402 32.7818C68.9442 32.8611 69.1766 32.9008 69.4372 32.9008C69.9926 32.9008 70.4459 32.7535 70.7972 32.4588C71.1486 32.1641 71.4206 31.6201 71.6132 30.8268C71.8059 30.0335 71.9022 28.9115 71.9022 27.4608C71.8002 27.6308 71.6416 27.8008 71.4262 27.9708C70.9956 28.3108 70.5026 28.4808 69.9472 28.4808C69.1199 28.4808 68.3946 28.3278 67.7712 28.0218C67.1592 27.7045 66.6889 27.2681 66.3602 26.7128C66.0316 26.1575 65.8672 25.5285 65.8672 24.8258C65.8672 23.6131 66.2412 22.6611 66.9892 21.9698C67.7486 21.2671 68.8196 20.9158 70.2022 20.9158C71.6302 20.9158 72.7522 21.4258 73.5682 22.4458C74.3842 23.4658 74.7922 25.0241 74.7922 27.1208C74.7922 29.1608 74.3446 30.7078 73.4492 31.7618C72.5652 32.8045 71.3412 33.3258 69.7772 33.3258ZM70.2872 28.0558C70.7519 28.0558 71.1202 27.8291 71.3922 27.3758C71.6756 26.9225 71.8172 26.2141 71.8172 25.2508C71.8172 23.8115 71.6586 22.7858 71.3412 22.1738C71.0352 21.5618 70.6556 21.2558 70.2022 21.2558C69.9756 21.2558 69.7489 21.3691 69.5222 21.5958C69.3069 21.8225 69.1256 22.1908 68.9782 22.7008C68.8309 23.2108 68.7572 23.8625 68.7572 24.6558C68.7572 25.4491 68.8309 26.1008 68.9782 26.6108C69.1369 27.1208 69.3296 27.4891 69.5562 27.7158C69.7942 27.9425 70.0379 28.0558 70.2872 28.0558ZM81.3392 33.3258C80.4212 33.3258 79.5882 33.0821 78.8402 32.5948C78.0922 32.1075 77.4972 31.3991 77.0552 30.4698C76.6246 29.5291 76.4092 28.4128 76.4092 27.1208C76.4092 25.8288 76.6246 24.7181 77.0552 23.7888C77.4972 22.8481 78.0922 22.1341 78.8402 21.6468C79.5882 21.1595 80.4212 20.9158 81.3392 20.9158C82.2572 20.9158 83.0902 21.1595 83.8382 21.6468C84.5862 22.1341 85.1756 22.8481 85.6062 23.7888C86.0482 24.7181 86.2692 25.8288 86.2692 27.1208C86.2692 28.4128 86.0482 29.5291 85.6062 30.4698C85.1756 31.3991 84.5862 32.1075 83.8382 32.5948C83.0902 33.0821 82.2572 33.3258 81.3392 33.3258ZM81.3392 32.9858C82.6426 32.9858 83.2942 31.0308 83.2942 27.1208C83.2942 23.2108 82.6426 21.2558 81.3392 21.2558C80.0359 21.2558 79.3842 23.2108 79.3842 27.1208C79.3842 31.0308 80.0359 32.9858 81.3392 32.9858ZM94.1775 23.2958V32.3058L95.5375 32.8158V33.0708H92.3075V32.8158L93.6675 32.3058V21.6808L92.4775 21.4258V21.1708H94.7725C95.3619 21.1708 95.8265 21.2955 96.1665 21.5448C96.5179 21.7828 96.8182 22.1398 97.0675 22.6158L100.774 29.7048L103.613 22.6158C103.805 22.1171 104.066 21.7545 104.395 21.5278C104.723 21.2898 105.228 21.1708 105.908 21.1708H107.693V21.4258L106.673 21.6808V32.5608L107.693 32.8158V33.0708H102.848V32.8158L103.868 32.5608V23.2958L99.8725 33.2408H99.3625L94.1775 23.2958ZM109.059 32.3058C109.059 31.6371 109.189 31.0308 109.45 30.4868C109.722 29.9315 110.05 29.4498 110.436 29.0418C110.821 28.6338 111.325 28.1521 111.949 27.5968C112.527 27.0868 112.98 26.6618 113.309 26.3218C113.637 25.9705 113.915 25.5795 114.142 25.1488C114.368 24.7068 114.482 24.2308 114.482 23.7208C114.482 22.9728 114.3 22.3891 113.938 21.9698C113.575 21.5505 113.105 21.3408 112.527 21.3408C112.198 21.3408 111.864 21.3861 111.524 21.4768L111.167 21.5958V24.3158L110.946 24.3668C110.764 24.3895 110.611 24.4008 110.487 24.4008C110.101 24.4008 109.79 24.2875 109.552 24.0608C109.325 23.8228 109.212 23.5111 109.212 23.1258C109.212 22.7631 109.348 22.4118 109.62 22.0718C109.903 21.7318 110.317 21.4541 110.861 21.2388C111.416 21.0235 112.085 20.9158 112.867 20.9158C114.397 20.9158 115.53 21.2218 116.267 21.8338C117.003 22.4458 117.372 23.3015 117.372 24.4008C117.372 25.0921 117.19 25.6871 116.828 26.1858C116.476 26.6845 116.04 27.0981 115.519 27.4268C115.009 27.7555 114.323 28.1295 113.462 28.5488C112.736 28.9001 112.147 29.2118 111.694 29.4838C111.252 29.7445 110.838 30.0618 110.453 30.4358C110.079 30.8098 109.812 31.2348 109.654 31.7108H115.944C116.023 31.0988 116.216 30.5888 116.522 30.1808C116.646 29.9881 116.794 29.8181 116.964 29.6708H117.474V33.0708H109.059V32.3058Z" fill="white"/>
<path fill-rule="evenodd" clip-rule="evenodd" d="M20.2502 11.3819C20.2502 11.171 20.4285 11 20.6483 11H49.3115C49.5313 11 49.7096 11.171 49.7096 11.3819V39.004C49.7096 39.2149 49.5313 39.3858 49.3115 39.3858C49.0916 39.3858 48.9134 39.2149 48.9134 39.004V11.7637H20.6483C20.4285 11.7637 20.2502 11.5928 20.2502 11.3819Z" fill="white" stroke="white" stroke-width="0.5"/>
<path d="M20.668 39.5618L20.793 39.5618L20.793 39.4368L20.793 15.6781L22.4189 17.304C22.622 17.507 22.9512 17.507 23.1542 17.304C23.3573 17.1009 23.3573 16.7717 23.1542 16.5687L20.6407 14.0552C20.4377 13.8521 20.1085 13.8521 19.9054 14.0552L17.3919 16.5687C17.1888 16.7717 17.1888 17.1009 17.3919 17.304C17.595 17.507 17.9242 17.507 18.1272 17.304L19.7531 15.6781L19.7531 39.4368L19.7531 39.5618L19.8781 39.5618L20.668 39.5618Z" fill="white" stroke="white" stroke-width="0.25"/>
<path d="M19.7521 39.8319V39.9569H19.8771L43.7603 39.9569L42.1261 41.5826C41.922 41.7857 41.922 42.1152 42.1261 42.3184C42.3299 42.5211 42.6601 42.5211 42.8639 42.3184L45.3905 39.8049C45.5947 39.6017 45.5947 39.2722 45.3905 39.0691L42.8639 36.5556C42.6601 36.3528 42.3299 36.3528 42.1261 36.5556C41.922 36.7587 41.922 37.0882 42.1261 37.2914L43.7603 38.917L19.8771 38.917H19.7521V39.042V39.8319Z" fill="white" stroke="white" stroke-width="0.25"/>
<path fill-rule="evenodd" clip-rule="evenodd" d="M31.1624 11.1157C31.3167 11.2699 31.3167 11.52 31.1624 11.6742L26.4229 16.4137C26.2687 16.568 26.0186 16.568 25.8644 16.4137C25.7101 16.2595 25.7101 16.0094 25.8644 15.8552L30.6039 11.1157C30.7581 10.9614 31.0082 10.9614 31.1624 11.1157Z" fill="white" stroke="white" stroke-width="0.5" stroke-linecap="round" stroke-linejoin="round"/>
<path fill-rule="evenodd" clip-rule="evenodd" d="M49.4622 29.942C49.6164 30.0962 49.6164 30.3463 49.4622 30.5005L45.1177 34.8451C44.9634 34.9993 44.7133 34.9993 44.5591 34.8451C44.4049 34.6908 44.4049 34.4408 44.5591 34.2865L48.9036 29.942C49.0579 29.7877 49.308 29.7877 49.4622 29.942Z" fill="white" stroke="white" stroke-width="0.5" stroke-linecap="round" stroke-linejoin="round"/>
<path fill-rule="evenodd" clip-rule="evenodd" d="M37.085 11.1139C37.2402 11.2672 37.2418 11.5172 37.0885 11.6725L26.8196 22.073C26.6664 22.2282 26.4163 22.2298 26.2611 22.0766C26.1059 21.9233 26.1043 21.6732 26.2575 21.518L36.5264 11.1175C36.6797 10.9622 36.9298 10.9607 37.085 11.1139Z" fill="white" stroke="white" stroke-width="0.5" stroke-linecap="round" stroke-linejoin="round"/>
<path fill-rule="evenodd" clip-rule="evenodd" d="M49.5938 23.3589C49.748 23.5131 49.748 23.7632 49.5938 23.9175L39.5882 33.9231C39.434 34.0773 39.1839 34.0773 39.0296 33.9231C38.8754 33.7688 38.8754 33.5188 39.0296 33.3645L49.0352 23.3589C49.1895 23.2047 49.4396 23.2047 49.5938 23.3589Z" fill="white" stroke="white" stroke-width="0.5" stroke-linecap="round" stroke-linejoin="round"/>
<path fill-rule="evenodd" clip-rule="evenodd" d="M43.4084 11.249C43.5614 11.4045 43.5594 11.6545 43.4039 11.8075L26.9473 28.0008C26.7918 28.1538 26.5417 28.1518 26.3888 27.9963C26.2358 27.8408 26.2378 27.5908 26.3933 27.4378L42.8498 11.2445C43.0053 11.0915 43.2554 11.0935 43.4084 11.249Z" fill="white" stroke="white" stroke-width="0.5" stroke-linecap="round" stroke-linejoin="round"/>
<path fill-rule="evenodd" clip-rule="evenodd" d="M49.5939 17.1715C49.7481 17.3258 49.7481 17.5758 49.5939 17.7301L33.0056 34.3183C32.8514 34.4726 32.6013 34.4726 32.4471 34.3183C32.2928 34.1641 32.2928 33.914 32.4471 33.7598L49.0353 17.1715C49.1896 17.0173 49.4396 17.0173 49.5939 17.1715Z" fill="white" stroke="white" stroke-width="0.5" stroke-linecap="round" stroke-linejoin="round"/>
<path fill-rule="evenodd" clip-rule="evenodd" d="M49.3306 11.2467C49.4848 11.401 49.4848 11.651 49.3306 11.8053L26.6863 34.4495C26.5321 34.6038 26.282 34.6038 26.1278 34.4495C25.9735 34.2953 25.9735 34.0452 26.1278 33.891L48.772 11.2467C48.9263 11.0925 49.1763 11.0925 49.3306 11.2467Z" fill="white" stroke="white" stroke-width="0.5" stroke-linecap="round" stroke-linejoin="round"/>
<path d="M200.409 33.0708V32.8158L201.599 32.4758V23.1428L199.814 24.4008L199.474 23.9758L202.568 21.1708H204.404V32.4758L205.594 32.8158V33.0708H200.409ZM206.785 32.3058C206.785 31.6371 206.915 31.0308 207.176 30.4868C207.448 29.9315 207.776 29.4498 208.162 29.0418C208.547 28.6338 209.051 28.1521 209.675 27.5968C210.253 27.0868 210.706 26.6618 211.035 26.3218C211.363 25.9705 211.641 25.5795 211.868 25.1488C212.094 24.7068 212.208 24.2308 212.208 23.7208C212.208 22.9728 212.026 22.3891 211.664 21.9698C211.301 21.5505 210.831 21.3408 210.253 21.3408C209.924 21.3408 209.59 21.3861 209.25 21.4768L208.893 21.5958V24.3158L208.672 24.3668C208.49 24.3895 208.337 24.4008 208.213 24.4008C207.827 24.4008 207.516 24.2875 207.278 24.0608C207.051 23.8228 206.938 23.5111 206.938 23.1258C206.938 22.7631 207.074 22.4118 207.346 22.0718C207.629 21.7318 208.043 21.4541 208.587 21.2388C209.142 21.0235 209.811 20.9158 210.593 20.9158C212.123 20.9158 213.256 21.2218 213.993 21.8338C214.729 22.4458 215.098 23.3015 215.098 24.4008C215.098 25.0921 214.916 25.6871 214.554 26.1858C214.202 26.6845 213.766 27.0981 213.245 27.4268C212.735 27.7555 212.049 28.1295 211.188 28.5488C210.462 28.9001 209.873 29.2118 209.42 29.4838C208.978 29.7445 208.564 30.0618 208.179 30.4358C207.805 30.8098 207.538 31.2348 207.38 31.7108H213.67C213.749 31.0988 213.942 30.5888 214.248 30.1808C214.372 29.9881 214.52 29.8181 214.69 29.6708H215.2V33.0708H206.785V32.3058ZM221.068 33.3258C219.64 33.3258 218.558 33.0425 217.821 32.4758C217.096 31.9091 216.733 31.1725 216.733 30.2658C216.733 29.6425 217.005 29.0418 217.549 28.4638C218.093 27.8745 218.756 27.4551 219.538 27.2058C218.79 26.7865 218.218 26.3275 217.821 25.8288C217.436 25.3188 217.243 24.7011 217.243 23.9758C217.243 23.0691 217.606 22.3325 218.331 21.7658C219.068 21.1991 220.15 20.9158 221.578 20.9158C222.292 20.9158 222.915 21.0461 223.448 21.3068C223.992 21.5675 224.411 21.9075 224.706 22.3268C225.001 22.7461 225.148 23.1825 225.148 23.6358C225.148 24.1685 224.916 24.6841 224.451 25.1828C223.998 25.6815 223.465 26.0158 222.853 26.1858C223.884 26.6391 224.666 27.1775 225.199 27.8008C225.732 28.4241 225.998 29.1891 225.998 30.0958C225.998 30.6851 225.817 31.2235 225.454 31.7108C225.091 32.1981 224.542 32.5891 223.805 32.8838C223.068 33.1785 222.156 33.3258 221.068 33.3258ZM222.343 25.8458C222.774 25.6531 223.119 25.3755 223.38 25.0128C223.652 24.6501 223.788 24.1911 223.788 23.6358C223.788 23.2278 223.686 22.8481 223.482 22.4968C223.289 22.1455 223.034 21.8678 222.717 21.6638C222.411 21.4485 222.088 21.3408 221.748 21.3408C221.261 21.3408 220.853 21.5335 220.524 21.9188C220.207 22.2928 220.048 22.8085 220.048 23.4658C220.048 24.3725 220.813 25.1658 222.343 25.8458ZM220.898 32.9008C221.623 32.9008 222.184 32.7025 222.581 32.3058C222.989 31.8978 223.193 31.3311 223.193 30.6058C223.193 30.0618 222.921 29.5121 222.377 28.9568C221.833 28.4015 221.113 27.9311 220.218 27.5458C219.583 27.7725 219.085 28.1125 218.722 28.5658C218.359 29.0078 218.178 29.5745 218.178 30.2658C218.178 30.7418 218.297 31.1838 218.535 31.5918C218.784 31.9885 219.113 32.3058 219.521 32.5438C219.94 32.7818 220.399 32.9008 220.898 32.9008ZM232.127 32.8158L233.147 32.5608V21.6808L232.127 21.4258V21.1708H236.462C238.49 21.1708 240.043 21.6921 241.12 22.7348C242.208 23.7775 242.752 25.2395 242.752 27.1208C242.752 29.0021 242.208 30.4641 241.12 31.5068C240.043 32.5495 238.49 33.0708 236.462 33.0708H232.127V32.8158ZM236.462 32.6458C237.516 32.6458 238.332 32.2208 238.91 31.3708C239.488 30.5095 239.777 29.0928 239.777 27.1208C239.777 25.1488 239.488 23.7378 238.91 22.8878C238.332 22.0265 237.516 21.5958 236.462 21.5958H235.952V32.6458H236.462ZM242.574 32.8158L243.934 32.3058L248.609 21.0008H249.119L253.964 32.5608L254.814 32.8158V33.0708H252.774C252.185 33.0708 251.703 32.9405 251.329 32.6798C250.955 32.4078 250.678 32.0565 250.496 31.6258L249.629 29.5858H245.566L244.444 32.3058L245.719 32.8158V33.0708H242.574V32.8158ZM245.736 29.1608H249.459L247.589 24.6898L245.736 29.1608ZM256.589 32.8158L257.609 32.5608V28.6508L254.124 21.6808L253.274 21.4258V21.1708H255.399C255.988 21.1708 256.458 21.2955 256.81 21.5448C257.172 21.7941 257.467 22.1511 257.694 22.6158L260.21 27.6308L262.794 21.9358L261.519 21.4258V21.1708H264.749V21.4258L263.389 21.9358L260.414 28.4808V32.5608L261.434 32.8158V33.0708H256.589V32.8158ZM269.08 33.3258C268.275 33.3258 267.521 33.1445 266.819 32.7818C266.501 32.6231 266.235 32.4361 266.02 32.2208C265.861 32.4815 265.663 32.7138 265.425 32.9178C265.221 33.0651 265.107 33.1445 265.085 33.1558H264.66V29.9258H265.34C265.51 30.4811 265.748 30.9798 266.054 31.4218C266.745 32.4078 267.64 32.9008 268.74 32.9008C269.386 32.9008 269.901 32.7081 270.287 32.3228C270.672 31.9375 270.865 31.4218 270.865 30.7758C270.865 30.4018 270.751 30.0675 270.525 29.7728C270.309 29.4781 270.037 29.2175 269.709 28.9908C269.38 28.7641 268.921 28.4808 268.332 28.1408C267.584 27.7215 266.977 27.3418 266.513 27.0018C266.048 26.6618 265.651 26.2368 265.323 25.7268C264.994 25.2055 264.83 24.5935 264.83 23.8908C264.83 23.3355 264.983 22.8368 265.289 22.3948C265.606 21.9415 266.076 21.5845 266.7 21.3238C267.323 21.0518 268.088 20.9158 268.995 20.9158C269.652 20.9158 270.309 21.1028 270.967 21.4768C271.216 21.6128 271.465 21.7941 271.715 22.0208C271.907 21.7261 272.106 21.4938 272.31 21.3238C272.514 21.1765 272.627 21.0971 272.65 21.0858H273.075V24.3158H272.395C272.247 23.7718 272.026 23.2788 271.732 22.8368C271.46 22.4061 271.12 22.0491 270.712 21.7658C270.315 21.4825 269.856 21.3408 269.335 21.3408C268.893 21.3408 268.513 21.5165 268.196 21.8678C267.878 22.2191 267.72 22.6668 267.72 23.2108C267.72 23.6301 267.839 24.0098 268.077 24.3498C268.326 24.6785 268.626 24.9675 268.978 25.2168C269.34 25.4661 269.828 25.7665 270.44 26.1178C271.154 26.5258 271.732 26.8885 272.174 27.2058C272.616 27.5231 272.99 27.9198 273.296 28.3958C273.602 28.8605 273.755 29.3988 273.755 30.0108C273.755 30.6228 273.579 31.1838 273.228 31.6938C272.876 32.1925 272.349 32.5891 271.647 32.8838C270.944 33.1785 270.088 33.3258 269.08 33.3258Z" fill="white"/>
<path d="M135.09 54.035L135.09 0" stroke="white" stroke-width="0.75"/>
<path d="M176.597 13.1987C176.334 11.946 175.193 11 173.829 11C173.517 11 173.264 11.2457 173.264 11.5497C173.264 11.8536 173.517 12.0993 173.829 12.0993C174.763 12.0993 175.524 12.8392 175.524 13.7484C175.524 14.6575 174.763 15.3974 173.829 15.3974C173.517 15.3974 173.264 15.6431 173.264 15.947C173.264 16.251 173.517 16.4967 173.829 16.4967C175.193 16.4967 176.334 15.5507 176.597 14.298H183.998V19.2451H153.491V14.298H161.4H163.095C163.407 14.298 163.66 14.0523 163.66 13.7484C163.66 13.4444 163.407 13.1987 163.095 13.1987H162.069C162.303 12.56 162.925 12.0993 163.66 12.0993C164.595 12.0993 165.355 12.8392 165.355 13.7484C165.355 14.6575 164.595 15.3974 163.66 15.3974C163.348 15.3974 163.095 15.6431 163.095 15.947C163.095 16.251 163.348 16.4967 163.66 16.4967C165.218 16.4967 166.485 15.2638 166.485 13.7484C166.485 12.2329 165.218 11 163.66 11C162.296 11 161.155 11.946 160.892 13.1987H152.361V20.3444V42.3313H185.128V20.3444V13.1987H176.597ZM183.998 41.232H153.491V20.3444H183.998V41.232Z" fill="white"/>
<path d="M167.05 12.0993C167.984 12.0993 168.745 12.8392 168.745 13.7484C168.745 14.6575 167.984 15.3974 167.05 15.3974C166.738 15.3974 166.485 15.6431 166.485 15.947C166.485 16.251 166.738 16.4967 167.05 16.4967C168.607 16.4967 169.874 15.2638 169.874 13.7484C169.874 12.2329 168.607 11 167.05 11C166.738 11 166.485 11.2457 166.485 11.5497C166.485 11.8536 166.738 12.0993 167.05 12.0993Z" fill="white"/>
<path d="M170.439 12.0993C171.374 12.0993 172.134 12.8392 172.134 13.7484C172.134 14.6575 171.374 15.3974 170.439 15.3974C170.128 15.3974 169.874 15.6431 169.874 15.947C169.874 16.251 170.128 16.4967 170.439 16.4967C171.997 16.4967 173.264 15.2638 173.264 13.7484C173.264 12.2329 171.997 11 170.439 11C170.128 11 169.874 11.2457 169.874 11.5497C169.874 11.8536 170.128 12.0993 170.439 12.0993Z" fill="white"/>
<path d="M157.446 24.7416H169.874C170.186 24.7416 170.439 24.4959 170.439 24.1919C170.439 23.8879 170.186 23.6422 169.874 23.6422H157.446C157.134 23.6422 156.881 23.8879 156.881 24.1919C156.881 24.4959 157.134 24.7416 157.446 24.7416Z" fill="white"/>
<path d="M180.043 32.4373H171.569C171.257 32.4373 171.004 32.683 171.004 32.9869C171.004 33.2909 171.257 33.5366 171.569 33.5366H180.043C180.355 33.5366 180.608 33.2909 180.608 32.9869C180.608 32.683 180.355 32.4373 180.043 32.4373Z" fill="white"/>
<path d="M157.446 29.1395H163.095C163.407 29.1395 163.66 28.8938 163.66 28.5898C163.66 28.2859 163.407 28.0402 163.095 28.0402H157.446C157.134 28.0402 156.881 28.2859 156.881 28.5898C156.881 28.8938 157.134 29.1395 157.446 29.1395Z" fill="white"/>
<path d="M180.043 36.8347H174.394C174.082 36.8347 173.829 37.0804 173.829 37.3844C173.829 37.6884 174.082 37.9341 174.394 37.9341H180.043C180.355 37.9341 180.608 37.6884 180.608 37.3844C180.608 37.0804 180.355 36.8347 180.043 36.8347Z" fill="white"/>
<path d="M168.18 28.5898C168.18 28.8938 168.433 29.1395 168.745 29.1395H177.219C177.531 29.1395 177.784 28.8938 177.784 28.5898C177.784 28.2859 177.531 28.0402 177.219 28.0402H168.745C168.433 28.0402 168.18 28.2859 168.18 28.5898Z" fill="white"/>
<path d="M166.321 28.9799C166.423 28.8754 166.485 28.7325 166.485 28.5896C166.485 28.4462 166.423 28.3032 166.321 28.1993C166.112 27.996 165.728 27.996 165.519 28.1993C165.417 28.3032 165.355 28.4462 165.355 28.5896C165.355 28.7325 165.417 28.8754 165.519 28.9799C165.626 29.0838 165.773 29.1393 165.92 29.1393C166.067 29.1393 166.214 29.0838 166.321 28.9799Z" fill="white"/>
<path d="M159.706 32.9869C159.706 33.2909 159.959 33.5366 160.27 33.5366H168.745C169.056 33.5366 169.31 33.2909 169.31 32.9869C169.31 32.683 169.056 32.4373 168.745 32.4373H160.27C159.959 32.4373 159.706 32.683 159.706 32.9869Z" fill="white"/>
<path d="M157.446 33.5366C157.593 33.5366 157.74 33.4761 157.847 33.3772C157.949 33.2727 158.011 33.1298 158.011 32.9869C158.011 32.8434 157.949 32.7005 157.847 32.6021C157.638 32.3932 157.254 32.3932 157.045 32.5966C156.943 32.7005 156.881 32.8434 156.881 32.9869C156.881 33.1298 156.943 33.2727 157.045 33.3772C157.152 33.4761 157.293 33.5366 157.446 33.5366Z" fill="white"/>
<path d="M180.043 29.1393C180.19 29.1393 180.337 29.0838 180.444 28.9799C180.552 28.8754 180.608 28.7325 180.608 28.5896C180.608 28.4462 180.552 28.3032 180.444 28.1993C180.23 27.996 179.851 27.996 179.642 28.1993C179.541 28.3032 179.478 28.4462 179.478 28.5896C179.478 28.7325 179.541 28.8754 179.642 28.9799C179.75 29.0838 179.896 29.1393 180.043 29.1393Z" fill="white"/>
<path d="M171.569 36.8347H157.446C157.134 36.8347 156.881 37.0804 156.881 37.3844C156.881 37.6884 157.134 37.9341 157.446 37.9341H171.569C171.881 37.9341 172.134 37.6884 172.134 37.3844C172.134 37.0804 171.881 36.8347 171.569 36.8347Z" fill="white"/>
<defs>
<filter id="filter0_d_1_11358" x="-15.0001" y="-15" width="333.753" height="94" filterUnits="userSpaceOnUse" color-interpolation-filters="sRGB">
<feFlood flood-opacity="0" result="BackgroundImageFix"/>
<feColorMatrix in="SourceAlpha" type="matrix" values="0 0 0 0 0 0 0 0 0 0 0 0 0 0 0 0 0 0 127 0" result="hardAlpha"/>
<feOffset dx="5" dy="5"/>
<feGaussianBlur stdDeviation="10"/>
<feColorMatrix type="matrix" values="0 0 0 0 0.890196 0 0 0 0 0.721569 0 0 0 0 0.45098 0 0 0 0.5 0"/>
<feBlend mode="normal" in2="BackgroundImageFix" result="effect1_dropShadow_1_11358"/>
<feBlend mode="normal" in="SourceGraphic" in2="effect1_dropShadow_1_11358" result="shape"/>
</filter>
</defs>
</svg>
